<svg xmlns="http://www.w3.org/2000/svg" xmlns:xlink="http://www.w3.org/1999/xlink" width="138" height="138" viewBox="0 0 138 138">
  <defs>
    <filter id="타원_62" x="0" y="0" width="138" height="138" filterUnits="userSpaceOnUse">
      <feOffset dy="3" input="SourceAlpha"/>
      <feGaussianBlur stdDeviation="3" result="blur"/>
      <feFlood flood-opacity="0.161"/>
      <feComposite operator="in" in2="blur"/>
      <feComposite in="SourceGraphic"/>
    </filter>
    <clipPath id="clip-path">
      <rect id="사각형_18" data-name="사각형 18" width="86.101" height="61" fill="#ffc336"/>
    </clipPath>
  </defs>
  <g id="그룹_40" data-name="그룹 40" transform="translate(-1081 -373)">
    <g transform="matrix(1, 0, 0, 1, 1081, 373)" filter="url(#타원_62)">
      <circle id="타원_62-2" data-name="타원 62" cx="60" cy="60" r="60" transform="translate(9 6)" fill="#fff"/>
    </g>
    <rect id="사각형_19" data-name="사각형 19" width="7" height="21" rx="3" transform="translate(1147 456)" fill="#d6ffa0"/>
    <g id="그룹_39" data-name="그룹 39" transform="translate(1107.45 400)">
      <g id="그룹_38" data-name="그룹 38" transform="translate(0 0)" clip-path="url(#clip-path)">
        <path id="패스_32" data-name="패스 32" d="M71.447,7.484c0,4.133-1.878,7.484-4.2,7.484s-4.2-3.35-4.2-7.484S64.934,0,67.252,0s4.2,3.35,4.2,7.484" transform="translate(-20.419 0)" fill="#ffc336"/>
        <path id="패스_33" data-name="패스 33" d="M51.869,8.155c0,4.133,1.878,7.484,4.2,7.484s4.2-3.35,4.2-7.484S58.382.671,56.065.671s-4.2,3.35-4.2,7.484" transform="translate(-16.796 -0.217)" fill="#ffc336"/>
        <path id="패스_34" data-name="패스 34" d="M82.5,10.7c-1.53,3.839-4.516,6.257-6.668,5.4S73.17,11.433,74.7,7.593s4.516-6.257,6.668-5.4S84.025,6.86,82.5,10.7" transform="translate(-23.903 -0.655)" fill="#ffc336"/>
        <path id="패스_35" data-name="패스 35" d="M92.488,15.91c-2.5,3.29-6.026,4.819-7.871,3.416s-1.31-5.207,1.192-8.5,6.026-4.82,7.871-3.417,1.31,5.207-1.192,8.5" transform="translate(-27.046 -2.232)" fill="#ffc336"/>
        <path id="패스_36" data-name="패스 36" d="M102.228,22.545c-3.145,2.682-6.913,3.428-8.417,1.665s-.174-5.367,2.971-8.049,6.913-3.428,8.417-1.665.174,5.367-2.971,8.049" transform="translate(-30.177 -4.385)" fill="#ffc336"/>
        <path id="패스_37" data-name="패스 37" d="M40.259,11.371c1.53,3.839,4.516,6.257,6.668,5.4s2.657-4.666,1.127-8.506-4.516-6.257-6.668-5.4-2.657,4.666-1.127,8.506" transform="translate(-12.75 -0.872)" fill="#ffc336"/>
        <path id="패스_38" data-name="패스 38" d="M29.455,16.581c2.5,3.29,6.026,4.819,7.871,3.416s1.31-5.207-1.192-8.5-6.026-4.82-7.871-3.417-1.31,5.207,1.192,8.5" transform="translate(-8.797 -2.45)" fill="#ffc336"/>
        <path id="패스_39" data-name="패스 39" d="M19.061,23.216c3.145,2.682,6.913,3.428,8.417,1.665s.174-5.367-2.971-8.049S17.593,13.4,16.09,15.166s-.174,5.367,2.971,8.049" transform="translate(-5.01 -4.602)" fill="#ffc336"/>
        <path id="패스_40" data-name="패스 40" d="M10.725,31.657c3.58,2.066,7.42,2.115,8.579.109s-.8-5.309-4.384-7.376S7.5,22.274,6.342,24.281s.8,5.309,4.384,7.376" transform="translate(-1.946 -7.386)" fill="#ffc336"/>
        <path id="패스_41" data-name="패스 41" d="M6.64,42.964c4.065.749,7.7-.492,8.12-2.771s-2.536-4.733-6.6-5.482S.459,35.2.04,37.483s2.535,4.733,6.6,5.482" transform="translate(0 -11.17)" fill="#ffc336"/>
        <path id="패스_42" data-name="패스 42" d="M11.117,54.231c3.58-2.066,7.42-2.115,8.579-.109s-.8,5.309-4.384,7.376-7.421,2.116-8.579.109.8-5.309,4.384-7.376" transform="translate(-2.073 -17.049)" fill="#ffc336"/>
        <path id="패스_43" data-name="패스 43" d="M7.031,43.759c4.065-.749,7.7.492,8.12,2.771s-2.536,4.733-6.6,5.482S.85,51.519.431,49.24s2.535-4.733,6.6-5.482" transform="translate(-0.127 -14.1)" fill="#ffc336"/>
        <path id="패스_44" data-name="패스 44" d="M110.083,30.986c-3.58,2.066-7.42,2.115-8.579.109s.8-5.309,4.384-7.376,7.421-2.116,8.579-.109-.8,5.309-4.384,7.376" transform="translate(-32.761 -7.168)" fill="#ffc336"/>
        <path id="패스_45" data-name="패스 45" d="M113.607,42.293c-4.065.749-7.7-.492-8.12-2.771s2.536-4.733,6.6-5.482,7.7.492,8.12,2.771-2.535,4.733-6.6,5.482" transform="translate(-34.146 -10.953)" fill="#ffc336"/>
        <path id="패스_46" data-name="패스 46" d="M109.692,53.56c-3.58-2.066-7.421-2.115-8.58-.108s.8,5.309,4.384,7.375,7.42,2.116,8.579.109-.8-5.309-4.383-7.376" transform="translate(-32.635 -16.832)" fill="#ffc336"/>
        <path id="패스_47" data-name="패스 47" d="M113.216,43.088c-4.065-.749-7.7.492-8.12,2.771s2.536,4.733,6.6,5.482,7.7-.492,8.12-2.771-2.535-4.733-6.6-5.482" transform="translate(-34.02 -13.882)" fill="#ffc336"/>
        <path id="패스_48" data-name="패스 48" d="M40.65,72.689c1.53-3.839,4.516-6.257,6.668-5.4s2.657,4.666,1.127,8.506-4.516,6.257-6.668,5.4-2.657-4.666-1.127-8.506" transform="translate(-12.877 -21.734)" fill="#ffc336"/>
        <path id="패스_49" data-name="패스 49" d="M29.846,68.1c2.5-3.29,6.026-4.819,7.871-3.416s1.31,5.207-1.192,8.5S30.5,78,28.654,76.6s-1.31-5.207,1.192-8.5" transform="translate(-8.923 -20.778)" fill="#ffc336"/>
        <path id="패스_50" data-name="패스 50" d="M19.453,62.1c3.145-2.682,6.913-3.428,8.417-1.665s.174,5.367-2.971,8.049-6.913,3.428-8.417,1.665-.174-5.367,2.971-8.049" transform="translate(-5.137 -19.261)" fill="#ffc336"/>
        <path id="패스_51" data-name="패스 51" d="M82.1,72.018c-1.53-3.839-4.516-6.257-6.668-5.4s-2.657,4.666-1.127,8.506,4.516,6.257,6.668,5.4,2.657-4.666,1.127-8.506" transform="translate(-23.776 -21.517)" fill="#ffc336"/>
        <path id="패스_52" data-name="패스 52" d="M92.1,67.429c-2.5-3.29-6.026-4.819-7.871-3.416s-1.31,5.207,1.192,8.5,6.026,4.82,7.871,3.417,1.31-5.207-1.192-8.5" transform="translate(-26.919 -20.56)" fill="#ffc336"/>
        <path id="패스_53" data-name="패스 53" d="M101.836,61.43c-3.145-2.682-6.913-3.428-8.417-1.665s-.174,5.367,2.971,8.049,6.913,3.428,8.417,1.665.174-5.367-2.971-8.049" transform="translate(-30.051 -19.044)" fill="#ffc336"/>
        <path id="패스_54" data-name="패스 54" d="M71.056,74.89c0-4.133-1.879-7.484-4.2-7.484s-4.2,3.35-4.2,7.484,1.878,7.484,4.2,7.484,4.2-3.35,4.2-7.484" transform="translate(-20.292 -21.828)" fill="#ffc336"/>
        <path id="패스_55" data-name="패스 55" d="M52.261,75.561c0-4.133,1.878-7.484,4.2-7.484s4.2,3.35,4.2,7.484-1.878,7.484-4.2,7.484-4.2-3.35-4.2-7.484" transform="translate(-16.923 -22.045)" fill="#ffc336"/>
        <path id="패스_56" data-name="패스 56" d="M21.833,30.239c6.693-3.314,16.252-5.432,26.934-5.593V20.516c-12.3.264-22.707,4.215-26.934,9.723" transform="translate(-7.07 -6.644)"/>
        <path id="패스_57" data-name="패스 57" d="M20.458,33.73a9.023,9.023,0,0,0-2.048,5.538c0,.2.007.4.022.6,6.767-3.958,17.31-6.552,29.226-6.725V28.092c-10.788.156-20.443,2.292-27.2,5.638" transform="translate(-5.962 -9.097)"/>
        <path id="패스_58" data-name="패스 58" d="M18.545,43.43a8.818,8.818,0,0,0,1.527,4.23c6.753-3.476,16.6-5.712,27.629-5.865V36.73c-11.887.166-22.408,2.752-29.156,6.7" transform="translate(-6.005 -11.894)"/>
        <path id="패스_59" data-name="패스 59" d="M21.7,51.674a16.821,16.821,0,0,0,5.578,4.98,70.706,70.706,0,0,1,21.444-3.4V45.924c-10.786.16-20.415,2.349-27.023,5.75" transform="translate(-7.027 -14.871)"/>
        <path id="패스_60" data-name="패스 60" d="M31.039,61.645c5.024,2.97,12.414,4.9,20.708,5.053V58.377a67.947,67.947,0,0,0-20.708,3.268" transform="translate(-10.051 -18.904)"/>
        <path id="패스_61" data-name="패스 61" d="M92.6,30.239c-6.693-3.314-16.252-5.432-26.934-5.593V20.516c12.3.264,22.707,4.215,26.934,9.723" transform="translate(-21.265 -6.644)"/>
        <path id="패스_62" data-name="패스 62" d="M92.87,33.73a9.023,9.023,0,0,1,2.048,5.538c0,.2-.007.4-.022.6-6.766-3.958-17.31-6.552-29.226-6.725V28.092c10.788.156,20.443,2.292,27.2,5.638" transform="translate(-21.265 -9.097)"/>
        <path id="패스_63" data-name="패스 63" d="M94.827,43.43A8.817,8.817,0,0,1,93.3,47.66c-6.753-3.476-16.6-5.712-27.629-5.865V36.73c11.887.166,22.408,2.752,29.156,6.7" transform="translate(-21.266 -11.894)"/>
        <path id="패스_64" data-name="패스 64" d="M92.694,51.674a16.821,16.821,0,0,1-5.578,4.98,70.706,70.706,0,0,0-21.444-3.4V45.924c10.786.16,20.415,2.349,27.023,5.75" transform="translate(-21.266 -14.871)"/>
        <path id="패스_65" data-name="패스 65" d="M86.379,61.645c-5.024,2.97-12.414,4.9-20.708,5.053V58.377a67.947,67.947,0,0,1,20.708,3.268" transform="translate(-21.266 -18.904)"/>
      </g>
    </g>
  </g>
</svg>
