<svg xmlns="http://www.w3.org/2000/svg" width="42" height="72" viewBox="0 0 42 72">
  <g id="그룹_23" data-name="그룹 23" transform="translate(-1992 -2105)">
    <g id="그룹_10" data-name="그룹 10" transform="translate(1580 1630)">
      <circle id="타원_3" data-name="타원 3" cx="21" cy="21" r="21" transform="translate(412 505)" fill="#6fa3e8"/>
      <path id="다각형_1" data-name="다각형 1" d="M20,0,40,45H0Z" transform="translate(413 475)" fill="#6fa3e8"/>
    </g>
    <circle id="타원_44" data-name="타원 44" cx="4" cy="4" r="4" transform="translate(2004 2150)" fill="#fff"/>
    <circle id="타원_45" data-name="타원 45" cx="2" cy="2" r="2" transform="translate(2006 2152)" fill="#4d4d4d"/>
    <circle id="타원_46" data-name="타원 46" cx="4" cy="4" r="4" transform="translate(2014 2150)" fill="#fff"/>
    <circle id="타원_47" data-name="타원 47" cx="2" cy="2" r="2" transform="translate(2016 2152)" fill="#4d4d4d"/>
    <path id="패스_19" data-name="패스 19" d="M2739.247,1729.411s2.983-5.256,5.017,0" transform="matrix(0.996, -0.087, 0.087, 0.996, -869.348, 678.675)" fill="none" stroke="#4d4d4d" stroke-linecap="round" stroke-width="1"/>
    <circle id="타원_48" data-name="타원 48" cx="1" cy="1" r="1" transform="translate(2008 2152)" fill="#fff"/>
    <circle id="타원_49" data-name="타원 49" cx="1" cy="1" r="1" transform="translate(2018 2152)" fill="#fff"/>
    <ellipse id="타원_42" data-name="타원 42" cx="2" cy="1" rx="2" ry="1" transform="translate(2018 2157)" fill="#bcccff"/>
    <ellipse id="타원_43" data-name="타원 43" cx="2" cy="1" rx="2" ry="1" transform="translate(2004 2157)" fill="#bcccff"/>
  </g>
</svg>
