<svg xmlns="http://www.w3.org/2000/svg" xmlns:xlink="http://www.w3.org/1999/xlink" width="138" height="138" viewBox="0 0 138 138">
  <defs>
    <filter id="타원_9" x="0" y="0" width="138" height="138" filterUnits="userSpaceOnUse">
      <feOffset dy="3" input="SourceAlpha"/>
      <feGaussianBlur stdDeviation="3" result="blur"/>
      <feFlood flood-opacity="0.161"/>
      <feComposite operator="in" in2="blur"/>
      <feComposite in="SourceGraphic"/>
    </filter>
  </defs>
  <g id="그룹_26" data-name="그룹 26" transform="translate(-1188 -370)">
    <g transform="matrix(1, 0, 0, 1, 1188, 370)" filter="url(#타원_9)">
      <circle id="타원_9-2" data-name="타원 9" cx="60" cy="60" r="60" transform="translate(9 6)" fill="#fff"/>
    </g>
    <g id="그룹_25" data-name="그룹 25" transform="translate(-756 -1804)">
      <g id="그룹_11" data-name="그룹 11" transform="translate(1580 1727)">
        <circle id="타원_3" data-name="타원 3" cx="21" cy="21" r="21" transform="translate(412 505)" fill="#fe6b6b"/>
        <path id="다각형_1" data-name="다각형 1" d="M20,0,40,45H0Z" transform="translate(413 475)" fill="#fe6b6b"/>
      </g>
      <ellipse id="타원_50" data-name="타원 50" cx="2" cy="1.5" rx="2" ry="1.5" transform="translate(2020 2253)" fill="red"/>
      <ellipse id="타원_51" data-name="타원 51" cx="2" cy="1.5" rx="2" ry="1.5" transform="translate(2002 2253)" fill="red"/>
      <circle id="타원_52" data-name="타원 52" cx="4" cy="4" r="4" transform="translate(2004 2247)" fill="#fff"/>
      <circle id="타원_53" data-name="타원 53" cx="2" cy="2" r="2" transform="translate(2006 2249)" fill="#4d4d4d"/>
      <circle id="타원_54" data-name="타원 54" cx="4" cy="4" r="4" transform="translate(2014 2247)" fill="#fff"/>
      <circle id="타원_55" data-name="타원 55" cx="2" cy="2" r="2" transform="translate(2016 2249)" fill="#4d4d4d"/>
      <path id="패스_20" data-name="패스 20" d="M2739.247,1729.976s9.367-6.528,15.753,0" transform="translate(-735 529.639)" fill="none" stroke="#4d4d4d" stroke-linecap="round" stroke-width="1"/>
      <path id="패스_21" data-name="패스 21" d="M2739.247,1727.075a18.379,18.379,0,0,0,6.1,0" transform="matrix(0.914, 0.407, -0.407, 0.914, 205.879, -446.159)" fill="none" stroke="#4d4d4d" stroke-linecap="round" stroke-width="1"/>
      <path id="패스_22" data-name="패스 22" d="M0,.275a18.379,18.379,0,0,1,6.1,0" transform="matrix(-0.914, 0.407, -0.407, -0.914, 2020, 2245.884)" fill="none" stroke="#4d4d4d" stroke-linecap="round" stroke-width="1"/>
      <circle id="타원_56" data-name="타원 56" cx="1" cy="1" r="1" transform="translate(2008 2249)" fill="#fff"/>
      <circle id="타원_57" data-name="타원 57" cx="1" cy="1" r="1" transform="translate(2018 2249)" fill="#fff"/>
    </g>
  </g>
</svg>
