<svg xmlns="http://www.w3.org/2000/svg" xmlns:xlink="http://www.w3.org/1999/xlink" width="138" height="138" viewBox="0 0 138 138">
  <defs>
    <filter id="타원_5" x="0" y="0" width="138" height="138" filterUnits="userSpaceOnUse">
      <feOffset dy="3" input="SourceAlpha"/>
      <feGaussianBlur stdDeviation="3" result="blur"/>
      <feFlood flood-opacity="0.161"/>
      <feComposite operator="in" in2="blur"/>
      <feComposite in="SourceGraphic"/>
    </filter>
  </defs>
  <g id="그룹_20" data-name="그룹 20" transform="translate(-593 -370)">
    <g transform="matrix(1, 0, 0, 1, 593, 370)" filter="url(#타원_5)">
      <circle id="타원_5-2" data-name="타원 5" cx="60" cy="60" r="60" transform="translate(9 6)" fill="#fff"/>
    </g>
    <g id="그룹_17" data-name="그룹 17" transform="translate(-1351 -1444)">
      <g id="그룹_7" data-name="그룹 7" transform="translate(1580 1367)">
        <circle id="타원_3" data-name="타원 3" cx="21" cy="21" r="21" transform="translate(412 505)" fill="#f5bb54"/>
        <path id="다각형_1" data-name="다각형 1" d="M20,0,40,45H0Z" transform="translate(413 475)" fill="#f5bb54"/>
      </g>
      <ellipse id="타원_18" data-name="타원 18" cx="2" cy="1.5" rx="2" ry="1.5" transform="translate(2020 1893)" fill="#ff8000"/>
      <ellipse id="타원_19" data-name="타원 19" cx="2" cy="1.5" rx="2" ry="1.5" transform="translate(2002 1893)" fill="#ff8000"/>
      <circle id="타원_20" data-name="타원 20" cx="4" cy="4" r="4" transform="translate(2004 1887)" fill="#fff"/>
      <circle id="타원_21" data-name="타원 21" cx="2" cy="2" r="2" transform="translate(2006 1889)" fill="#4d4d4d"/>
      <circle id="타원_22" data-name="타원 22" cx="4" cy="4" r="4" transform="translate(2014 1887)" fill="#fff"/>
      <circle id="타원_23" data-name="타원 23" cx="2" cy="2" r="2" transform="translate(2016 1889)" fill="#4d4d4d"/>
      <path id="패스_16" data-name="패스 16" d="M2739.247,1727.075s9.367,3.687,15.753,0" transform="translate(-734 170)" fill="none" stroke="#4d4d4d" stroke-linecap="round" stroke-width="1"/>
      <circle id="타원_24" data-name="타원 24" cx="1" cy="1" r="1" transform="translate(2008 1889)" fill="#fff"/>
      <circle id="타원_25" data-name="타원 25" cx="1" cy="1" r="1" transform="translate(2018 1889)" fill="#fff"/>
    </g>
  </g>
</svg>
