<svg xmlns="http://www.w3.org/2000/svg" xmlns:xlink="http://www.w3.org/1999/xlink" width="78.855" height="206.842" viewBox="0 0 78.855 206.842">
  <defs>
    <clipPath id="clip-path">
      <rect id="사각형_20" data-name="사각형 20" width="66.428" height="154.057" fill="rgba(148,148,148,0.37)"/>
    </clipPath>
    <clipPath id="clip-path-2">
      <rect id="사각형_20-2" data-name="사각형 20" width="78.855" height="199.684" fill="#d2ffaa"/>
    </clipPath>
  </defs>
  <g id="그룹_45" data-name="그룹 45" transform="translate(-920.572 -738)">
    <g id="그룹_44" data-name="그룹 44" transform="translate(928.572 790.785)" style="mix-blend-mode: normal;isolation: isolate">
      <g id="그룹_42" data-name="그룹 42" clip-path="url(#clip-path)">
        <path id="패스_66" data-name="패스 66" d="M64.077,0c7.513,36.456-2.652,78.312-35.215,102.411-5.188,3.912-11.027,7.233-15.932,11.451-15.066,12.38-14.944,23.662,4,32.131a113.45,113.45,0,0,0,25.595,7.5l-.245.065a15.209,15.209,0,0,1,5.75-2.63,6.962,6.962,0,0,1,6,1.345,6.791,6.791,0,0,0-2.823-1.231c-3.152-.406-6.186,1.153-8.531,2.934l-.105.084-.139-.019c-13.975-1.984-44.7-8.729-42.3-25.825.721-4.35,3.369-8.127,6.379-11.4,5.159-5.677,11.78-9.864,18.139-14.26a92.206,92.206,0,0,0,27.543-30.4C64.387,50.079,67.557,24.373,64.077,0" transform="translate(0)" fill="rgba(148,148,148,0.37)"/>
      </g>
    </g>
    <g id="그룹_43" data-name="그룹 43" transform="translate(920.572 738)">
      <g id="그룹_42-2" data-name="그룹 42" clip-path="url(#clip-path-2)">
        <path id="패스_66-2" data-name="패스 66" d="M76.064,0c8.919,47.253-3.148,101.506-41.8,132.742-6.159,5.071-13.09,9.375-18.913,14.843-17.884,16.046-17.74,30.67,4.748,41.647a126.23,126.23,0,0,0,30.383,9.717l-.291.084a17.39,17.39,0,0,1,6.826-3.409,7.741,7.741,0,0,1,7.124,1.743,7.738,7.738,0,0,0-3.351-1.6c-3.742-.526-7.343,1.495-10.127,3.8l-.125.109-.165-.024C33.781,197.088-2.695,188.346.158,166.186c.856-5.638,4-10.534,7.572-14.777,6.124-7.358,13.984-12.785,21.532-18.484a116.508,116.508,0,0,0,32.7-39.41C76.432,64.911,80.2,31.591,76.064,0" fill="#d2ffaa"/>
      </g>
    </g>
  </g>
</svg>
